<svg width="1441" height="4433" viewBox="0 0 1441 4433" fill="none" xmlns="http://www.w3.org/2000/svg">
<path d="M67.1631 0H30C13.4315 0 0 13.4316 0 30.0001V4403C0 4419.57 13.4315 4433 30 4433H1411C1427.57 4433 1441 4419.57 1441 4403V30C1441 13.4315 1427.57 0 1411 0H1380.52C1370.76 0 1361.6 4.75114 1355.99 12.7359L1260.33 148.675C1254.71 156.66 1245.56 161.411 1235.8 161.411H710.987H203.525C193.308 161.411 183.793 156.211 178.276 147.612L92.4121 13.7986C86.8944 5.19967 77.38 0 67.1631 0Z" fill="#EAEEF2"/>
</svg>
