<svg width="28" height="16" viewBox="0 0 28 16" fill="none" xmlns="http://www.w3.org/2000/svg">
<path d="M1.11895 15.2552C1.59884 15.7322 2.248 16 2.92466 16C3.60131 16 4.25047 15.7322 4.73036 15.2552L13.9254 6.18782L22.9923 15.2552C23.4722 15.7322 24.1213 16 24.798 16C25.4747 16 26.1238 15.7322 26.6037 15.2552C26.8438 15.017 27.0343 14.7338 27.1643 14.4216C27.2944 14.1095 27.3613 13.7747 27.3613 13.4366C27.3613 13.0984 27.2944 12.7636 27.1643 12.4515C27.0343 12.1394 26.8438 11.8561 26.6037 11.618L15.7439 0.757656C15.5058 0.51758 15.2225 0.327028 14.9104 0.196989C14.5983 0.0669498 14.2635 0 13.9254 0C13.5872 0 13.2525 0.0669498 12.9404 0.196989C12.6282 0.327028 12.345 0.51758 12.1069 0.757656L1.11895 11.618C0.878889 11.8561 0.688345 12.1394 0.558311 12.4515C0.428278 12.7636 0.361328 13.0984 0.361328 13.4366C0.361328 13.7747 0.428278 14.1095 0.558311 14.4216C0.688345 14.7338 0.878889 15.017 1.11895 15.2552Z" fill="black"/>
</svg>
